<svg xmlns="http://www.w3.org/2000/svg" version="1.1" xmlns:xlink="http://www.w3.org/1999/xlink" xmlns:svgjs="http://svgjs.dev/svgjs" width="1000" height="1000" viewBox="0 0 1000 1000"><rect width="1000" height="1000" fill="#8abe53"></rect><g transform="matrix(0.7,0,0,0.7,149.57575757575756,282.1265587044535)"><svg viewBox="0 0 396 247" data-background-color="#8abe53" preserveAspectRatio="xMidYMid meet" height="623" width="1000" xmlns="http://www.w3.org/2000/svg" xmlns:xlink="http://www.w3.org/1999/xlink"><g id="tight-bounds" transform="matrix(1,0,0,1,0.2400000000000091,-0.09999999999999432)"><svg viewBox="0 0 395.52 247.2" height="247.2" width="395.52"><g><svg></svg></g><g><svg viewBox="0 0 395.52 247.2" height="247.2" width="395.52"><g transform="matrix(1,0,0,1,75.54432000000001,86.70686275538341)"><svg viewBox="0 0 244.43135999999996 73.78627448923316" height="73.78627448923316" width="244.43135999999996"><g><svg viewBox="0 0 244.43135999999996 73.78627448923316" height="73.78627448923316" width="244.43135999999996"><g><svg viewBox="0 0 244.43136 73.78627448923318" height="73.78627448923316" width="244.43135999999996"><g><svg viewBox="0 0 244.43136 73.78627448923318" height="73.78627448923318" width="244.43136"><g><svg viewBox="0 0 244.43136 73.78627448923318" height="73.78627448923318" width="244.43136"><g><svg viewBox="0 0 244.43136 41.9934565543854" height="41.9934565543854" width="244.43136"><g transform="matrix(1,0,0,1,0,0)"><svg width="244.43136" viewBox="1.0457943677902222 -35.45000076293945 209.24420166015625 35.95000076293945" height="41.9934565543854" data-palette-color="#4d7e3e"><path d="M6.2-1.25L1.05-34.5Q0.9-35.05 6.1-35.05L6.1-35.05Q11.85-35.05 12-34.1L12-34.1 14.45-13.05 19.75-34.35Q20-35.1 23.65-35.1 27.3-35.1 27.55-34.4L27.55-34.4 32.75-12.95 35.65-34.2Q35.75-34.75 37.95-34.95 40.15-35.15 41.5-35.15L41.5-35.15Q46.75-35.15 46.6-34.45L46.6-34.45 40.55-1.3Q40.35-0.55 37.7-0.2 35.05 0.15 33.4 0.15L33.4 0.15Q27.2 0.15 26.9-1.25L26.9-1.25 23.5-15 19.8-1.3Q19.6-0.4 16.3 0L16.3 0Q14.6 0.15 12.9 0.15L12.9 0.15 9.7 0Q6.4-0.35 6.2-1.25L6.2-1.25ZM59.95-21.1L66.4-21.1Q67.35-21.1 67.35-17.6L67.35-17.6Q67.35-16.55 67.12-15.13 66.9-13.7 66.3-13.7L66.3-13.7 59.95-13.7 59.95-8.7 69.15-8.7Q70-8.7 70.3-6.5L70.3-6.5Q70.45-5.55 70.45-4.48 70.45-3.4 70.15-1.7 69.85 0 69.15 0L69.15 0 52.05 0Q50.15 0 50.15-1.55L50.15-1.55 50.15-33.7Q50.15-35 51.3-35L51.3-35 69.2-35Q70.25-35 70.25-30.58 70.25-26.15 69.2-26.15L69.2-26.15 59.95-26.15 59.95-21.1ZM98.49-35.45Q102.14-35.45 104.92-34.43 107.69-33.4 107.69-31.65 107.69-29.9 106.37-27.33 105.04-24.75 104.14-24.75L104.14-24.75Q103.89-24.75 103.57-25.03 103.24-25.3 102.07-25.63 100.89-25.95 100.04-25.95L100.04-25.95Q97.14-25.95 95.37-23.9 93.59-21.85 93.59-17.63 93.59-13.4 95.42-11.35 97.24-9.3 100.04-9.3L100.04-9.3Q101.19-9.3 102.62-9.63 104.04-9.95 104.64-10.55L104.64-10.55Q104.74-10.65 105.04-10.65 105.34-10.65 106.17-9.53 106.99-8.4 107.69-6.58 108.39-4.75 108.39-3.75L108.39-3.75Q108.39-1.8 105.39-0.65 102.39 0.5 98.29 0.5L98.29 0.5Q91.69 0.5 87.44-4.15 83.19-8.8 83.19-17.28 83.19-25.75 87.57-30.6 91.94-35.45 98.49-35.45L98.49-35.45ZM127.12 0.5Q120.09 0.5 115.67-4.1 111.24-8.7 111.24-17.53 111.24-26.35 115.72-30.9 120.19-35.45 127.27-35.45 134.34-35.45 138.69-30.98 143.04-26.5 143.04-17.43 143.04-8.35 138.59-3.93 134.14 0.5 127.12 0.5ZM127.14-25.85Q124.74-25.85 123.12-23.65 121.49-21.45 121.49-17.48 121.49-13.5 123.04-11.38 124.59-9.25 127.12-9.25 129.64-9.25 131.22-11.4 132.79-13.55 132.79-17.55 132.79-21.55 131.17-23.7 129.54-25.85 127.14-25.85ZM161.91 0.5Q154.89 0.5 150.46-4.1 146.04-8.7 146.04-17.53 146.04-26.35 150.51-30.9 154.99-35.45 162.06-35.45 169.14-35.45 173.49-30.98 177.84-26.5 177.84-17.43 177.84-8.35 173.39-3.93 168.94 0.5 161.91 0.5ZM161.94-25.85Q159.54-25.85 157.91-23.65 156.29-21.45 156.29-17.48 156.29-13.5 157.84-11.38 159.39-9.25 161.91-9.25 164.44-9.25 166.01-11.4 167.59-13.55 167.59-17.55 167.59-21.55 165.96-23.7 164.34-25.85 161.94-25.85ZM191.84-12.75L191.84-0.7Q191.84 0.05 187.14 0.05L187.14 0.05 184.34-0.1Q181.84-0.3 181.84-0.8L181.84-0.8 181.84-34.35Q181.84-35.2 186.84-35.2 191.84-35.2 191.84-34.35L191.84-34.35 191.84-21.55 197.94-34.35Q198.29-35.05 201.94-35.05L201.94-35.05Q208.59-35.05 208.94-33.9L208.94-33.9Q208.94-33.8 208.89-33.7L208.89-33.7 200.19-18 210.29-4.05Q210.29-3.95 209.34-3.2L209.34-3.2Q207.04-1.2 203.94-0.05L203.94-0.05Q202.99 0.3 202.04 0.3L202.04 0.3 200.84 0.2Q199.24-0.2 198.34-1.85L198.34-1.85 192.64-12.75 191.84-12.75Z" opacity="1" transform="matrix(1,0,0,1,0,0)" fill="#4d7e3e" class="undefined-text-0" data-fill-palette-color="primary" id="text-0"></path></svg></g></svg></g><g transform="matrix(1,0,0,1,0,51.90710380391849)"><svg viewBox="0 0 244.43136 21.879170685314687" height="21.879170685314687" width="244.43136"><g transform="matrix(1,0,0,1,0,0)"><svg width="244.43136" viewBox="2.25 -38.5 558.530029296875 50" height="21.879170685314687" data-palette-color="#c6e0bd"><path d="M25.29-18.55L20.7-18.55Q19.68-20.39 18.1-21.24 16.53-22.09 14.45-22.09L14.45-22.09Q12.87-22.09 11.47-21.44 10.08-20.78 9.05-19.56 8.01-18.33 7.41-16.59 6.81-14.84 6.81-12.7L6.81-12.7Q6.81-10.57 7.41-8.86 8.01-7.15 9.06-5.94 10.11-4.74 11.49-4.09 12.87-3.44 14.45-3.44L14.45-3.44Q16.8-3.44 18.53-4.58 20.26-5.71 21.29-7.91L21.29-7.91 25.05-6.05Q24.32-4.49 23.24-3.25 22.17-2 20.81-1.12 19.46-0.24 17.83 0.23 16.21 0.71 14.4 0.71L14.4 0.71Q11.77 0.71 9.53-0.28 7.3-1.27 5.68-3.05 4.05-4.83 3.15-7.3 2.25-9.77 2.25-12.7L2.25-12.7Q2.25-15.63 3.2-18.09 4.15-20.56 5.81-22.33 7.47-24.1 9.69-25.1 11.91-26.1 14.45-26.1L14.45-26.1Q16.85-26.1 18.98-25.27 21.12-24.44 22.73-22.75L22.73-22.75 25.29-22.75 25.29-18.55ZM29.39-12.65L29.39-12.65Q29.42-15.65 30.36-18.12 31.3-20.58 32.98-22.35 34.67-24.12 36.98-25.07 39.3-26.03 42.09-26.03L42.09-26.03Q44.89-26.03 47.23-25.07 49.56-24.12 51.22-22.38 52.88-20.63 53.81-18.16 54.73-15.7 54.73-12.7L54.73-12.7Q54.73-9.74 53.81-7.26 52.88-4.79 51.22-3 49.56-1.22 47.23-0.23 44.89 0.76 42.09 0.76L42.09 0.76Q39.23 0.76 36.91-0.22 34.59-1.2 32.93-2.97 31.27-4.74 30.34-7.2 29.42-9.67 29.39-12.65ZM34.2-12.65L34.2-12.65Q34.2-10.47 34.82-8.72 35.45-6.96 36.53-5.73 37.62-4.49 39.05-3.82 40.48-3.15 42.09-3.15L42.09-3.15Q43.77-3.15 45.22-3.81 46.68-4.47 47.75-5.7 48.83-6.93 49.44-8.69 50.05-10.45 50.05-12.65L50.05-12.65Q50.05-14.94 49.44-16.72 48.83-18.51 47.76-19.7 46.7-20.9 45.24-21.51 43.77-22.12 42.09-22.12L42.09-22.12Q40.48-22.12 39.05-21.51 37.62-20.9 36.53-19.7 35.45-18.51 34.82-16.72 34.2-14.94 34.2-12.65ZM59.3-12.65L59.3-12.65Q59.32-15.65 60.26-18.12 61.2-20.58 62.89-22.35 64.57-24.12 66.89-25.07 69.21-26.03 71.99-26.03L71.99-26.03Q74.8-26.03 77.13-25.07 79.46-24.12 81.12-22.38 82.78-20.63 83.71-18.16 84.64-15.7 84.64-12.7L84.64-12.7Q84.64-9.74 83.71-7.26 82.78-4.79 81.12-3 79.46-1.22 77.13-0.23 74.8 0.76 71.99 0.76L71.99 0.76Q69.14 0.76 66.82-0.22 64.5-1.2 62.84-2.97 61.18-4.74 60.25-7.2 59.32-9.67 59.3-12.65ZM64.11-12.65L64.11-12.65Q64.11-10.47 64.73-8.72 65.35-6.96 66.44-5.73 67.52-4.49 68.95-3.82 70.38-3.15 71.99-3.15L71.99-3.15Q73.68-3.15 75.13-3.81 76.58-4.47 77.66-5.7 78.73-6.93 79.34-8.69 79.95-10.45 79.95-12.65L79.95-12.65Q79.95-14.94 79.34-16.72 78.73-18.51 77.67-19.7 76.61-20.9 75.14-21.51 73.68-22.12 71.99-22.12L71.99-22.12Q70.38-22.12 68.95-21.51 67.52-20.9 66.44-19.7 65.35-18.51 64.73-16.72 64.11-14.94 64.11-12.65ZM89.35-33.79L89.35-37.99 98.26-37.99 98.26-33.79 98.21-33.79 98.21-14.89 102.6-14.89 108.61-21.09 107.1-21.09 107.1-25.29 116.69-25.29 116.69-21.09 113.49-21.09 105.8-13.16 114.2-4.2 117.25-4.2 117.25 0 111.91 0 101.56-11.3 98.21-11.3 98.21-4.2 100.31-4.2 100.31 0 89.49 0 89.49-4.2 93.64-4.2 93.64-33.79 89.35-33.79ZM118.98 7.01L123.5-6.91 128.85-4.81 122.5 8.3 118.98 7.01ZM126.62 0Q126.62 0 126.62 0ZM154.6-18.51Q154.6-19.53 154.12-20.25 153.65-20.97 152.89-21.42 152.13-21.88 151.21-22.08 150.28-22.29 149.4-22.29L149.4-22.29Q148.42-22.29 147.6-22.07 146.79-21.85 146.2-21.44 145.61-21.02 145.29-20.42 144.96-19.82 144.96-19.09L144.96-19.09Q144.96-17.82 145.72-17.08 146.49-16.33 148.3-15.7L148.3-15.7 153.16-13.99Q156.28-12.94 157.72-11.13 159.16-9.33 159.16-6.81L159.16-6.81Q159.16-5.13 158.49-3.72 157.82-2.32 156.59-1.33 155.36-0.34 153.62 0.21 151.89 0.76 149.77 0.76L149.77 0.76Q146.81 0.76 144.96-0.2 143.1-1.15 142.1-2.71L142.1-2.71 139.56-2.71 139.56-6.91 144.61-6.91Q144.61-5.86 145.07-5.11 145.52-4.37 146.26-3.91 147.01-3.44 147.95-3.22 148.89-3 149.86-3L149.86-3Q150.82-3 151.69-3.23 152.57-3.47 153.24-3.92 153.92-4.37 154.31-5 154.7-5.64 154.7-6.45L154.7-6.45Q154.7-7.67 153.9-8.52 153.11-9.38 151.21-10.06L151.21-10.06 146.37-11.87Q143.42-12.92 141.99-14.54 140.56-16.16 140.56-18.6L140.56-18.6Q140.56-20.21 141.16-21.58 141.76-22.95 142.89-23.94 144.03-24.93 145.66-25.49 147.3-26.05 149.4-26.05L149.4-26.05Q152.11-26.05 153.94-25.29 155.77-24.54 157.24-22.71L157.24-22.71 159.6-22.71 159.6-18.51 154.6-18.51ZM164.58-33.79L164.58-37.99 172.59-37.99 172.59-22.51 172.74-22.51Q173.42-23.19 174.31-23.79 175.2-24.39 176.18-24.83 177.16-25.27 178.21-25.51 179.25-25.76 180.4-25.76L180.4-25.76Q182.43-25.76 184.06-25.2 185.7-24.63 186.85-23.49 188-22.34 188.62-20.54 189.24-18.75 189.24-16.31L189.24-16.31 189.24-4.2 193.05-4.2 193.05 0 181.04 0 181.04-4.2 184.5-4.2 184.5-15.75Q184.5-18.65 183.03-20.15 181.55-21.66 178.79-21.66L178.79-21.66Q177.23-21.66 175.62-20.91 174.01-20.17 172.59-19.04L172.59-19.04 172.59-4.2 176.25-4.2 176.25 0 164.24 0 164.24-4.2 168.05-4.2 168.05-33.79 164.58-33.79ZM212.16 0L212.16-2.34Q210.72-1 208.98-0.15 207.23 0.71 205.01 0.71L205.01 0.71Q203.15 0.71 201.6 0.12 200.05-0.46 198.93-1.48 197.81-2.49 197.18-3.83 196.56-5.18 196.56-6.69L196.56-6.69Q196.56-8.3 197.04-9.55 197.51-10.79 198.31-11.71 199.1-12.62 200.16-13.24 201.23-13.87 202.38-14.25 203.54-14.62 204.75-14.78 205.96-14.94 207.06-14.94L207.06-14.94Q208.82-14.94 210.01-14.83 211.21-14.72 212.19-14.53L212.19-14.53 212.21-16.6Q212.21-17.94 211.82-18.93 211.43-19.92 210.72-20.57 210.01-21.22 209.03-21.53 208.04-21.85 206.82-21.85L206.82-21.85Q205.67-21.85 204.62-21.69 203.57-21.53 202.65-21.28 201.74-21.02 200.97-20.69 200.2-20.36 199.66-20L199.66-20 198.17-23.14Q199.08-23.73 200.15-24.23 201.23-24.73 202.41-25.09 203.59-25.44 204.83-25.65 206.06-25.85 207.26-25.85L207.26-25.85Q209.45-25.85 211.21-25.33 212.97-24.8 214.19-23.71 215.41-22.61 216.07-20.91 216.73-19.21 216.73-16.85L216.73-16.85 216.7-4.2 219.51-4.2 219.51 0 212.16 0ZM206.01-3.1L206.01-3.1Q206.91-3.1 207.82-3.32 208.72-3.54 209.53-3.92 210.33-4.3 211.02-4.8 211.7-5.3 212.16-5.83L212.16-5.83 212.19-11.55 206.91-11.55Q205.6-11.55 204.51-11.25 203.42-10.96 202.63-10.4 201.84-9.84 201.4-9.01 200.96-8.18 200.96-7.1L200.96-7.1Q200.96-6.1 201.32-5.36 201.69-4.61 202.36-4.11 203.03-3.61 203.96-3.36 204.89-3.1 206.01-3.1ZM242.82-25.44L242.82-19.95 238.19-19.95 238.19-21.51Q237.38-21.51 236.54-21.2 235.7-20.9 234.96-20.28 234.23-19.65 233.68-18.69 233.13-17.72 232.89-16.41L232.89-16.41 232.89-4.2 237.18-4.2 237.18 0 224.64 0 224.64-4.2 228.13-4.2 228.15-21.09 224.64-21.09 224.64-25.29 232.72-25.29 232.72-21.8Q233.16-22.58 233.71-23.25 234.25-23.93 234.93-24.43 235.6-24.93 236.42-25.21 237.23-25.49 238.19-25.49L238.19-25.49Q239.46-25.49 240.58-25.49 241.7-25.49 242.82-25.44L242.82-25.44ZM270.58-12.06L252.37-12.06Q252.37-10.99 252.53-10.1 252.68-9.2 252.98-8.4L252.98-8.4Q253.88-5.96 255.87-4.72 257.86-3.49 260.38-3.49L260.38-3.49Q262.35-3.49 264.22-4.04 266.09-4.59 268.14-5.76L268.14-5.76 269.97-2.66Q267.48-0.95 264.97-0.12 262.45 0.71 259.74 0.71L259.74 0.71Q257.18 0.71 254.99-0.15 252.81-1 251.23-2.69 249.66-4.37 248.77-6.88 247.88-9.4 247.88-12.74L247.88-12.74Q247.88-15.45 248.63-17.86 249.39-20.26 250.89-22.06 252.39-23.85 254.61-24.9 256.84-25.95 259.79-25.95L259.79-25.95Q262.65-25.95 264.56-25.09 266.48-24.22 267.69-22.79 268.9-21.36 269.52-19.53 270.14-17.7 270.39-15.8L270.39-15.8Q270.51-14.87 270.54-13.92 270.58-12.96 270.58-12.06L270.58-12.06ZM259.47-22.14L259.47-22.14Q257.89-22.14 256.7-21.69 255.52-21.24 254.69-20.4 253.86-19.56 253.36-18.33 252.86-17.11 252.61-15.6L252.61-15.6 265.72-15.6Q265.62-17.02 265.27-18.21 264.92-19.41 264.18-20.29 263.45-21.17 262.3-21.66 261.16-22.14 259.47-22.14ZM274.8 7.01L279.32-6.91 284.66-4.81 278.32 8.3 274.8 7.01ZM282.44 0Q282.44 0 282.44 0ZM294.77-33.79L294.77-37.99 302.97-37.99 302.97-23.19Q304.58-24.44 306.49-25.17 308.39-25.9 310.42-25.9L310.42-25.9Q312.91-25.9 314.98-24.98 317.06-24.05 318.56-22.36 320.06-20.68 320.89-18.32 321.72-15.97 321.72-13.11L321.72-13.11Q321.72-10.06 320.79-7.58 319.86-5.1 318.22-3.32 316.57-1.54 314.3-0.57 312.03 0.39 309.32 0.39L309.32 0.39Q307.44 0.39 305.79-0.16 304.14-0.71 302.97-1.59L302.97-1.59 302.97 0 298.43 0 298.43-33.79 294.77-33.79ZM309.22-21.9L309.22-21.9Q307.44-21.9 305.8-21.17 304.17-20.43 302.97-19.19L302.97-19.19 302.97-5.59Q303.75-4.79 305.27-4.16 306.78-3.54 309.07-3.54L309.07-3.54Q310.64-3.54 312.08-4.13 313.52-4.71 314.62-5.9 315.71-7.08 316.37-8.84 317.03-10.6 317.03-12.94L317.03-12.94Q317.03-15.09 316.41-16.75 315.79-18.41 314.73-19.56 313.66-20.7 312.25-21.3 310.83-21.9 309.22-21.9ZM348.92-12.06L330.7-12.06Q330.7-10.99 330.86-10.1 331.02-9.2 331.31-8.4L331.31-8.4Q332.22-5.96 334.21-4.72 336.2-3.49 338.71-3.49L338.71-3.49Q340.69-3.49 342.56-4.04 344.42-4.59 346.47-5.76L346.47-5.76 348.3-2.66Q345.81-0.95 343.3-0.12 340.79 0.71 338.08 0.71L338.08 0.71Q335.51 0.71 333.33-0.15 331.14-1 329.57-2.69 327.99-4.37 327.1-6.88 326.21-9.4 326.21-12.74L326.21-12.74Q326.21-15.45 326.97-17.86 327.72-20.26 329.23-22.06 330.73-23.85 332.95-24.9 335.17-25.95 338.12-25.95L338.12-25.95Q340.98-25.95 342.9-25.09 344.81-24.22 346.02-22.79 347.23-21.36 347.85-19.53 348.48-17.7 348.72-15.8L348.72-15.8Q348.84-14.87 348.88-13.92 348.92-12.96 348.92-12.06L348.92-12.06ZM337.81-22.14L337.81-22.14Q336.22-22.14 335.04-21.69 333.85-21.24 333.02-20.4 332.19-19.56 331.69-18.33 331.19-17.11 330.95-15.6L330.95-15.6 344.06-15.6Q343.96-17.02 343.61-18.21 343.25-19.41 342.52-20.29 341.79-21.17 340.64-21.66 339.49-22.14 337.81-22.14ZM352.65 0Q352.65 0 352.65 0ZM366.37-33.79L366.37-37.99 374.37-37.99 374.37-22.51 374.52-22.51Q375.2-23.19 376.1-23.79 376.99-24.39 377.96-24.83 378.94-25.27 379.99-25.51 381.04-25.76 382.19-25.76L382.19-25.76Q384.21-25.76 385.85-25.2 387.48-24.63 388.63-23.49 389.78-22.34 390.4-20.54 391.02-18.75 391.02-16.31L391.02-16.31 391.02-4.2 394.83-4.2 394.83 0 382.82 0 382.82-4.2 386.29-4.2 386.29-15.75Q386.29-18.65 384.81-20.15 383.33-21.66 380.58-21.66L380.58-21.66Q379.01-21.66 377.4-20.91 375.79-20.17 374.37-19.04L374.37-19.04 374.37-4.2 378.04-4.2 378.04 0 366.02 0 366.02-4.2 369.83-4.2 369.83-33.79 366.37-33.79ZM421.59-12.06L403.38-12.06Q403.38-10.99 403.53-10.1 403.69-9.2 403.99-8.4L403.99-8.4Q404.89-5.96 406.88-4.72 408.87-3.49 411.38-3.49L411.38-3.49Q413.36-3.49 415.23-4.04 417.1-4.59 419.15-5.76L419.15-5.76 420.98-2.66Q418.49-0.95 415.97-0.12 413.46 0.71 410.75 0.71L410.75 0.71Q408.19 0.71 406-0.15 403.81-1 402.24-2.69 400.67-4.37 399.77-6.88 398.88-9.4 398.88-12.74L398.88-12.74Q398.88-15.45 399.64-17.86 400.4-20.26 401.9-22.06 403.4-23.85 405.62-24.9 407.84-25.95 410.8-25.95L410.8-25.95Q413.65-25.95 415.57-25.09 417.49-24.22 418.7-22.79 419.9-21.36 420.53-19.53 421.15-17.7 421.39-15.8L421.39-15.8Q421.52-14.87 421.55-13.92 421.59-12.96 421.59-12.06L421.59-12.06ZM410.48-22.14L410.48-22.14Q408.89-22.14 407.71-21.69 406.52-21.24 405.69-20.4 404.86-19.56 404.36-18.33 403.86-17.11 403.62-15.6L403.62-15.6 416.73-15.6Q416.63-17.02 416.28-18.21 415.92-19.41 415.19-20.29 414.46-21.17 413.31-21.66 412.16-22.14 410.48-22.14ZM442.63 0L442.63-2.34Q441.19-1 439.44-0.15 437.7 0.71 435.48 0.71L435.48 0.71Q433.62 0.71 432.07 0.12 430.52-0.46 429.4-1.48 428.28-2.49 427.65-3.83 427.03-5.18 427.03-6.69L427.03-6.69Q427.03-8.3 427.51-9.55 427.98-10.79 428.78-11.71 429.57-12.62 430.63-13.24 431.69-13.87 432.85-14.25 434.01-14.62 435.22-14.78 436.43-14.94 437.53-14.94L437.53-14.94Q439.29-14.94 440.48-14.83 441.68-14.72 442.66-14.53L442.66-14.53 442.68-16.6Q442.68-17.94 442.29-18.93 441.9-19.92 441.19-20.57 440.48-21.22 439.49-21.53 438.5-21.85 437.28-21.85L437.28-21.85Q436.14-21.85 435.09-21.69 434.04-21.53 433.12-21.28 432.21-21.02 431.44-20.69 430.67-20.36 430.13-20L430.13-20 428.64-23.14Q429.54-23.73 430.62-24.23 431.69-24.73 432.88-25.09 434.06-25.44 435.29-25.65 436.53-25.85 437.72-25.85L437.72-25.85Q439.92-25.85 441.68-25.33 443.44-24.8 444.66-23.71 445.88-22.61 446.54-20.91 447.2-19.21 447.2-16.85L447.2-16.85 447.17-4.2 449.98-4.2 449.98 0 442.63 0ZM436.48-3.1L436.48-3.1Q437.38-3.1 438.29-3.32 439.19-3.54 439.99-3.92 440.8-4.3 441.48-4.8 442.17-5.3 442.63-5.83L442.63-5.83 442.66-11.55 437.38-11.55Q436.06-11.55 434.98-11.25 433.89-10.96 433.1-10.4 432.3-9.84 431.86-9.01 431.42-8.18 431.42-7.1L431.42-7.1Q431.42-6.1 431.79-5.36 432.16-4.61 432.83-4.11 433.5-3.61 434.43-3.36 435.36-3.1 436.48-3.1ZM454.91-33.79L454.91-37.99 463.11-37.99 463.11-4.2 466.92-4.2 466.92 0 454.91 0 454.91-4.2 458.57-4.2 458.57-33.79 454.91-33.79ZM478.69-33.45L478.69-25.29 484.62-25.29 484.62-21.61 478.64-21.61 478.56-7.01Q478.56-5.52 478.91-4.59 479.25-3.66 480-3.31 480.76-2.95 481.71-2.95L481.71-2.95Q482.74-2.95 483.52-3.14 484.3-3.32 485.23-3.76L485.23-3.76 486.28-0.71Q485.11-0.1 483.81 0.26 482.52 0.61 480.76 0.61L480.76 0.61Q479.1 0.61 477.87 0.21 476.63-0.2 475.79-1.15 474.95-2.1 474.53-3.7 474.12-5.3 474.12-7.69L474.12-7.69 474.19-21.61 470.16-21.61 470.16-25.29 474.24-25.29 474.24-31.35 478.69-33.45ZM490.3-33.79L490.3-37.99 498.31-37.99 498.31-22.51 498.46-22.51Q499.14-23.19 500.03-23.79 500.92-24.39 501.9-24.83 502.88-25.27 503.93-25.51 504.98-25.76 506.12-25.76L506.12-25.76Q508.15-25.76 509.79-25.2 511.42-24.63 512.57-23.49 513.72-22.34 514.34-20.54 514.96-18.75 514.96-16.31L514.96-16.31 514.96-4.2 518.77-4.2 518.77 0 506.76 0 506.76-4.2 510.23-4.2 510.23-15.75Q510.23-18.65 508.75-20.15 507.27-21.66 504.51-21.66L504.51-21.66Q502.95-21.66 501.34-20.91 499.73-20.17 498.31-19.04L498.31-19.04 498.31-4.2 501.97-4.2 501.97 0 489.96 0 489.96-4.2 493.77-4.2 493.77-33.79 490.3-33.79ZM521.33-21.09L521.33-25.29 530.93-25.29 530.93-21.09 527.92-21.09 533.86-4.96 540.06-21.09 537.08-21.09 537.08-25.29 546.67-25.29 546.67-21.09 544.06-21.09 532.81 7.3 536.27 7.3 536.27 11.5 526.07 11.5 526.07 7.3 529.14 7.3 531.83 0.34 523.38-21.09 521.33-21.09ZM554.43-2.95L554.43-2.95Q554.43-3.59 554.69-4.16 554.95-4.74 555.37-5.16 555.8-5.59 556.39-5.85 556.97-6.1 557.63-6.1L557.63-6.1Q558.27-6.1 558.84-5.85 559.42-5.59 559.84-5.16 560.27-4.74 560.53-4.16 560.78-3.59 560.78-2.95L560.78-2.95Q560.78-2.29 560.53-1.71 560.27-1.12 559.84-0.67 559.42-0.22 558.84 0.04 558.27 0.29 557.63 0.29L557.63 0.29Q556.97 0.29 556.39 0.04 555.8-0.22 555.37-0.67 554.95-1.12 554.69-1.71 554.43-2.29 554.43-2.95ZM555.44-10.01L554.43-38.5 560.78-38.5 559.78-10.01 555.44-10.01Z" opacity="1" transform="matrix(1,0,0,1,0,0)" fill="#c6e0bd" class="undefined-text-1" data-fill-palette-color="secondary" id="text-1"></path></svg></g></svg></g></svg></g></svg></g></svg></g></svg></g></svg></g><g><path d="M0 123.6c0-68.262 55.338-123.6 123.6-123.6 53.573 0 99.185 34.084 116.335 81.75h-2.015c-17.064-46.6-61.808-79.857-114.32-79.856-67.217 0-121.706 54.49-121.706 121.706 0 67.217 54.49 121.706 121.706 121.706 52.512 0 97.256-33.256 114.32-79.856h2.015c-17.15 47.666-62.762 81.75-116.335 81.75-68.262 0-123.6-55.338-123.6-123.6z" fill="#4d7e3e" stroke="transparent" data-fill-palette-color="tertiary"></path></g></svg></g><defs></defs></svg><rect width="395.52" height="247.2" fill="none" stroke="none" visibility="hidden"></rect></g></svg></g></svg>