<svg width="348.4000122070313" height="106.2817599150963" viewBox="0 -20 370.2580645161291 112.94970534084639" class="css-1j8o68f"><defs id="SvgjsDefs6836"></defs><g id="SvgjsG6837" featurekey="symbolFeature-0" transform="matrix(1.031456556003721,0,0,1.031456556003721,130.99137847727502,-24.908701569025762)" fill="#fdfdcb"><path xmlns="http://www.w3.org/2000/svg" d="M-74.83,41.512c-4.109,0-12.315,4.105-16.42,12.313c-4.105-8.208-12.314-12.313-16.42-12.313s-16.418,0-16.418,16.424  c0,16.414,32.838,36.938,32.838,36.938s32.838-20.524,32.838-36.938C-58.412,41.512-70.726,41.512-74.83,41.512z"></path><path xmlns="http://www.w3.org/2000/svg" d="M-89.264,46.266L-91.25,4.759l-1.986,41.507c0.727,1.002,1.401,2.078,1.986,3.247  C-90.666,48.344-89.991,47.268-89.264,46.266z"></path><path xmlns="http://www.w3.org/2000/svg" d="M-97.5,32.5l-16.124-14.475l18.636,12.755c-1.923-4.793-9.241-18.931-28.486-18.176  C-123.475,12.604-121.433,31.458-97.5,32.5z"></path><path xmlns="http://www.w3.org/2000/svg" d="M-86.75,24.5c17.634-0.767,20-16.083,20-16.083c-14.181-0.557-20.349,10.87-21.767,14.401l15.683-10.651L-86.75,24.5z"></path></g><g id="SvgjsG6838" featurekey="nameFeature-0" transform="matrix(1.0807855782252225,0,0,1.0807855782252225,88.00009173385283,3.4139803742596246)" fill="#ffffff"><path d="M43.2 11.96 l10.8 0 c-0.6 1 -4.64 8.04 -8.52 14.8 c-2.28 3.96 -4.8 8.4 -7.64 13.24 l-3.6 0 l-3.16 -5.4 c-1.6 -2.92 -3.44 -5.92 -4.08 -7.08 c-1.88 3.24 -3.64 6.32 -4.96 8.68 c-0.76 1.36 -1.52 2.64 -2.2 3.8 l-3.6 0 c0.32 -0.64 9.84 -17.28 10.76 -18.68 c0.08 0.08 2.32 3.96 4.56 7.84 l4.48 7.72 c1.92 -3.32 5.04 -8.8 7.72 -13.4 l4.84 -8.4 l-3.6 0 c-3.52 6.2 -6.04 10.6 -8.92 15.48 l-4.48 -7.6 l-4.6 -7.88 c-5 8.64 -7.96 13.92 -12.56 21.8 c-0.28 -0.48 -14.48 -24.88 -14.44 -24.92 l10.8 0 l5.44 9.36 l-1.8 3.12 l-5.44 -9.36 l-3.6 0 c0.8 1.28 8.28 14.32 9.04 15.56 l7.84 -13.6 l2.92 -5.08 l3.6 0 c0.36 0.68 5.56 9.6 7.28 12.4 c2.24 -3.84 3.96 -6.88 5.2 -9.08 z M95.10400000000001 11.96 l0 9.36 l-21.24 0 l0 3.12 l15.76 0 l0 3.12 l-18.88 0 l0 -9.36 l21.24 0 l0 -3.12 l-24.36 0 l0 21.8 l24.36 0 l0 -3.12 l-21.24 0 l0 -3.12 l24.36 0 l0 9.36 l-30.6 0 l0 -28.04 l30.6 0 z M137.808 11.96 l0 9.4 l-17.2 0 c-2.36 0.2 -4.16 2.24 -4.16 4.64 s1.8 4.36 4.16 4.64 l10.96 0 l0 3.12 l-10.96 0 c-4.04 -0.32 -7.24 -3.64 -7.24 -7.8 c0 -4 3.08 -7.4 7.08 -7.72 l14.24 0 l0 -3.16 l-14.08 0 l0 0.04 c-5.72 0.32 -10.28 5.04 -10.28 10.88 c0 5.8 4.56 10.56 10.28 10.88 l14.08 0 l0 -6.24 l3.12 0 l0 9.36 l-17.2 0 c-7.48 -0.32 -13.4 -6.48 -13.4 -14 c0 -7.56 5.92 -13.68 13.4 -14 z M162.672 10.719999999999999 c8.4 0 15.24 6.84 15.24 15.28 s-6.84 15.24 -15.24 15.24 c-8.44 0 -15.28 -6.8 -15.28 -15.24 s6.84 -15.28 15.28 -15.28 z M162.672 38.16 c6.72 0 12.16 -5.44 12.16 -12.16 s-5.44 -12.2 -12.16 -12.2 c-6.76 0 -12.2 5.48 -12.2 12.2 s5.44 12.16 12.2 12.16 z M162.672 16.88 c5 0 9.08 4.12 9.08 9.12 s-4.08 9.08 -9.08 9.08 s-9.12 -4.08 -9.12 -9.08 s4.12 -9.12 9.12 -9.12 z M162.672 32 c3.32 0 6 -2.68 6 -6 c0 -3.36 -2.68 -6.04 -6 -6.04 c-3.36 0 -6.04 2.68 -6.04 6.04 c0 3.32 2.68 6 6.04 6 z M203.296 10.719999999999999 c8.4 0 15.24 6.84 15.24 15.28 s-6.84 15.24 -15.24 15.24 c-8.44 0 -15.28 -6.8 -15.28 -15.24 s6.84 -15.28 15.28 -15.28 z M203.296 38.16 c6.72 0 12.16 -5.44 12.16 -12.16 s-5.44 -12.2 -12.16 -12.2 c-6.76 0 -12.2 5.48 -12.2 12.2 s5.44 12.16 12.2 12.16 z M203.296 16.88 c5 0 9.08 4.12 9.08 9.12 s-4.08 9.08 -9.08 9.08 s-9.12 -4.08 -9.12 -9.08 s4.12 -9.12 9.12 -9.12 z M203.296 32 c3.32 0 6 -2.68 6 -6 c0 -3.36 -2.68 -6.04 -6 -6.04 c-3.36 0 -6.04 2.68 -6.04 6.04 c0 3.32 2.68 6 6.04 6 z M246.04 30.32 l2.28 -2.12 l12.84 11.8 l-13.8 0 l-10.48 -9.6 l16.24 -15.32 l-4.52 0 l-11.72 11.32 l0 -11.32 l-3.12 0 l0 21.8 l5.52 0 l3.44 3.12 l-12.08 0 l0 -28.04 l9.36 0 l0 6.88 l7.36 -6.88 l13.64 0 l-19.56 18.4 l7.12 6.52 l4.6 0 z"></path></g><g id="SvgjsG6839" featurekey="sloganFeature-0" transform="matrix(0.7782369769662572,0,0,0.7782369769662572,115.6110118113037,63.5796144755172)" fill="#fdfdcb"><path d="M9.34 12.379999999999999 c1.86 0 3.66 1.34 3.66 3.58 c0 2.48 -2.26 4.08 -5.6 4.08 c-0.96 0 -2.08 -0.12 -3.56 -0.12 c-1.26 0 -2.22 0.02 -3.14 0.12 c-0.18 0.02 -0.28 -0.68 -0.12 -0.72 c1.16 -0.3 2.06 -0.48 2.06 -1.96 l0 -8.88 c0 -1.28 -0.82 -1.62 -1.68 -1.84 c-0.16 -0.04 -0.06 -0.7 0.1 -0.68 c0.82 0.1 1.78 0.12 2.42 0.12 c1.6 0 2.78 -0.12 3.66 -0.12 c2.58 0 4.7 1.08 4.72 3.28 c0.02 1.62 -1.12 2.74 -2.52 3.02 l0 0.12 z M6.46 7 c-1.06 0 -1.42 0.36 -1.42 1.48 l0 3.56 l2.06 0 c1.44 0 2.28 -0.72 2.28 -2.26 c0 -1.9 -1.28 -2.78 -2.92 -2.78 z M7.34 19 c1.76 0 3.08 -0.52 3.08 -2.6 c0 -2.2 -1.46 -3.36 -3.32 -3.36 l-2.06 0 l0 4.32 c0 1.1 0.56 1.64 2.3 1.64 z M16.75 20.04 c-0.2 0.02 -0.28 -0.68 -0.12 -0.72 c1.16 -0.3 2.06 -0.48 2.06 -1.96 l0 -8.88 c0 -1.28 -0.82 -1.62 -1.68 -1.84 c-0.16 -0.04 -0.06 -0.7 0.1 -0.68 c1.46 0.16 3.98 0.12 5.2 0.12 c1.82 0 3.14 -0.08 4.78 -0.12 c0.48 0 0.48 0.32 0.38 0.78 l-0.48 1.9 c-0.06 0.28 -0.56 0.28 -0.64 0 c-0.3 -0.98 -0.9 -1.54 -3.4 -1.54 c-1.4 0 -1.86 0.36 -1.86 1.4 l0 3.26 c0 0.52 0.26 0.62 0.66 0.62 l0.44 0 c1.62 0 3.02 -0.16 3.84 -0.9 c0.2 -0.18 0.64 -0.14 0.46 0.26 l-1.14 2.52 c-0.16 0.36 -0.46 0.32 -0.68 0.02 c-0.46 -0.64 -1.48 -0.9 -2.64 -0.9 l-0.28 0 c-0.4 0 -0.66 0.1 -0.66 0.62 l0 3.36 c0 1.14 0.48 1.56 2.14 1.56 c3.02 0 4.22 -1.38 4.7 -2.14 c0.14 -0.22 0.68 -0.12 0.68 0.22 c0 1.02 -0.86 3.04 -2.12 3.04 c-1.12 -0.06 -2.22 -0.12 -3.9 -0.12 c-1.84 0 -4.02 -0.06 -5.84 0.12 z M51.59 6 c0.24 0 0.3 0.64 0.06 0.68 c-0.78 0.12 -1.46 0.68 -2.38 2.12 l-3.2 5 l0 3.72 c0 1.4 0.8 1.64 2.04 1.8 c0.14 0.02 0.04 0.68 -0.12 0.68 l-6.26 0 c-0.16 0 -0.26 -0.66 -0.12 -0.68 c1.32 -0.18 2.06 -0.44 2.06 -1.8 l0 -3.64 l-3.36 -5.06 c-0.92 -1.38 -1.48 -2 -2.34 -2.14 c-0.26 -0.04 -0.2 -0.68 0.06 -0.68 l5.28 0 c0.26 0 0.3 0.64 0.06 0.68 c-0.88 0.14 -1.22 0.82 -0.36 2.12 l2.54 3.78 l2.44 -3.78 c0.84 -1.3 0.34 -1.96 -0.72 -2.12 c-0.28 -0.04 -0.2 -0.68 0.04 -0.68 l4.28 0 z M62.68 20.32 c-4.16 0 -7.22 -3.08 -7.22 -7.24 c0 -4.04 2.88 -7.4 7.26 -7.4 c4.18 0 7.22 3.06 7.22 7.22 c0 4.06 -2.86 7.42 -7.26 7.42 z M63.46 18.96 c1.76 0 4.1 -1.16 4.1 -4.94 c0 -4.04 -2.74 -6.98 -5.62 -6.98 c-1.76 0 -4.08 1.16 -4.08 4.92 c0 4.08 2.74 7 5.6 7 z M81.36999999999999 20.32 c-2.82 0 -5.98 -1.5 -5.98 -5.56 l0 -6.28 c0 -1.26 -0.64 -1.68 -1.62 -1.8 c-0.16 -0.02 -0.04 -0.68 0.12 -0.68 l5.46 0 c0.16 0 0.28 0.66 0.12 0.68 c-0.8 0.1 -1.6 0.4 -1.6 1.8 l0 6.38 c0 2.8 1.62 4.1 3.74 4.1 c2.18 0 3.92 -1.3 3.92 -4.1 l0 -6.38 c0 -1.3 -0.74 -1.66 -1.72 -1.8 c-0.14 -0.02 -0.04 -0.68 0.12 -0.68 l4.5 0 c0.14 0 0.26 0.66 0.1 0.68 c-0.8 0.1 -1.6 0.4 -1.6 1.8 l0 6.26 c0 3.68 -2.38 5.58 -5.56 5.58 z M106.75999999999999 19.5 c0.16 0 0.12 0.54 0 0.58 c-1.26 0.42 -3 0.36 -4.2 -1.18 l-3.08 -3.96 c-0.86 -1.12 -1.88 -1.28 -3.28 -1.3 l0 3.88 c0 1.4 0.96 1.64 2.24 1.8 c0.14 0.02 0.04 0.68 -0.12 0.68 l-6.06 0 c-0.16 0 -0.28 -0.66 -0.12 -0.68 c1.02 -0.14 1.66 -0.54 1.66 -1.8 l0 -8.92 c0 -1.32 -0.7 -1.7 -1.66 -1.96 c-0.16 -0.04 -0.06 -0.7 0.12 -0.68 c0.78 0.1 1.66 0.12 2.3 0.12 c1.48 0 2.86 -0.12 3.82 -0.12 c3.02 0 5.04 1.24 5.04 3.7 c0 2.32 -1.88 3.46 -3.56 3.56 l0 0.1 c0.8 0 1.38 0.34 2.26 1.44 l2.98 3.74 c0.62 0.78 1.22 1 1.66 1 z M96.77999999999999 12.719999999999999 c2.98 0 4.12 -0.52 4.12 -2.52 c0 -2.14 -1.36 -3.2 -3.14 -3.2 c-1.18 0 -1.56 0.48 -1.56 1.6 l0 4.12 l0.58 0 z M124.29999999999998 12.379999999999999 c1.86 0 3.66 1.34 3.66 3.58 c0 2.48 -2.26 4.08 -5.6 4.08 c-0.96 0 -2.08 -0.12 -3.56 -0.12 c-1.26 0 -2.22 0.02 -3.14 0.12 c-0.18 0.02 -0.28 -0.68 -0.12 -0.72 c1.16 -0.3 2.06 -0.48 2.06 -1.96 l0 -8.88 c0 -1.28 -0.82 -1.62 -1.68 -1.84 c-0.16 -0.04 -0.06 -0.7 0.1 -0.68 c0.82 0.1 1.78 0.12 2.42 0.12 c1.6 0 2.78 -0.12 3.66 -0.12 c2.58 0 4.7 1.08 4.72 3.28 c0.02 1.62 -1.12 2.74 -2.52 3.02 l0 0.12 z M121.41999999999997 7 c-1.06 0 -1.42 0.36 -1.42 1.48 l0 3.56 l2.06 0 c1.44 0 2.28 -0.72 2.28 -2.26 c0 -1.9 -1.28 -2.78 -2.92 -2.78 z M122.29999999999998 19 c1.76 0 3.08 -0.52 3.08 -2.6 c0 -2.2 -1.46 -3.36 -3.32 -3.36 l-2.06 0 l0 4.32 c0 1.1 0.56 1.64 2.3 1.64 z M131.70999999999998 20.04 c-0.2 0.02 -0.28 -0.68 -0.12 -0.72 c1.16 -0.3 2.06 -0.48 2.06 -1.96 l0 -8.88 c0 -1.28 -0.82 -1.62 -1.68 -1.84 c-0.16 -0.04 -0.06 -0.7 0.1 -0.68 c1.46 0.16 3.98 0.12 5.2 0.12 c1.82 0 3.14 -0.08 4.78 -0.12 c0.48 0 0.48 0.32 0.38 0.78 l-0.48 1.9 c-0.06 0.28 -0.56 0.28 -0.64 0 c-0.3 -0.98 -0.9 -1.54 -3.4 -1.54 c-1.4 0 -1.86 0.36 -1.86 1.4 l0 3.26 c0 0.52 0.26 0.62 0.66 0.62 l0.44 0 c1.62 0 3.02 -0.16 3.84 -0.9 c0.2 -0.18 0.64 -0.14 0.46 0.26 l-1.14 2.52 c-0.16 0.36 -0.46 0.32 -0.68 0.02 c-0.46 -0.64 -1.48 -0.9 -2.64 -0.9 l-0.28 0 c-0.4 0 -0.66 0.1 -0.66 0.62 l0 3.36 c0 1.14 0.48 1.56 2.14 1.56 c3.02 0 4.22 -1.38 4.7 -2.14 c0.14 -0.22 0.68 -0.12 0.68 0.22 c0 1.02 -0.86 3.04 -2.12 3.04 c-1.12 -0.06 -2.22 -0.12 -3.9 -0.12 c-1.84 0 -4.02 -0.06 -5.84 0.12 z M151.44 20.32 c-1.64 0 -4.14 -0.72 -3.9 -1.6 l0.2 -0.74 c0.56 -2.1 1.22 0.98 4.52 0.98 c1.68 0 2.5 -0.82 2.5 -1.98 c0 -0.94 -0.6 -1.34 -2.02 -2.22 l-1.94 -1.22 c-2.16 -1.36 -3.04 -2.2 -3.04 -3.7 c0 -2.46 2.4 -4.16 4.88 -4.16 c1.52 0 3.46 0.66 3.24 1.34 l-0.24 0.76 c-0.62 1.94 -1.12 -0.74 -3.86 -0.74 c-1.42 0 -2.16 0.72 -2.16 1.78 c0 0.9 0.54 1.4 1.88 2.22 l2.1 1.3 c2.12 1.32 2.98 2.22 2.98 3.66 c0 2.5 -2.46 4.32 -5.14 4.32 z M163.31 20 c-0.18 0 -0.3 -0.64 -0.14 -0.66 c1.38 -0.18 2.3 -0.46 2.3 -1.54 l0 -9.86 c0 -0.5 -0.18 -0.66 -0.66 -0.66 l-0.54 0 c-1.9 0 -2.96 0.44 -3.36 1.3 c-0.18 0.4 -0.86 0.34 -0.78 0 c0.18 -0.72 0.34 -1.34 0.46 -2.4 c0.04 -0.38 0.26 -0.36 0.62 -0.32 c0.92 0.1 1.76 0.14 5.56 0.14 s5.14 -0.04 6.1 -0.14 c0.36 -0.04 0.7 -0.06 0.58 0.32 c-0.3 0.94 -0.5 1.68 -0.62 2.4 c-0.06 0.34 -0.6 0.36 -0.68 0 c-0.2 -0.84 -1.08 -1.3 -2.8 -1.3 l-0.62 0 c-0.48 0 -0.78 0.16 -0.78 0.66 l0 9.86 c0 1.08 0.92 1.36 2.3 1.54 c0.16 0.02 0.04 0.66 -0.14 0.66 l-6.8 0 z M197.37 6 c0.22 0 0.3 0.64 0.04 0.68 c-0.8 0.12 -1.32 0.44 -2.04 2.12 l-3.38 7.86 c-0.7 1.62 -1.02 2.54 -1.02 3.34 c0 0.12 -1.38 0.44 -1.44 0.3 l-4.86 -11.48 c-0.72 -1.72 -1.26 -2.02 -2.04 -2.14 c-0.26 -0.04 -0.2 -0.68 0.06 -0.68 l5.26 0 c0.26 0 0.3 0.64 0.06 0.68 c-0.74 0.12 -1.48 0.44 -0.78 2.12 l3.38 8.12 l3.38 -8.12 c0.72 -1.72 -0.08 -1.98 -1 -2.12 c-0.26 -0.04 -0.2 -0.68 0.06 -0.68 l4.32 0 z M200.82 20.04 c-0.2 0.02 -0.28 -0.68 -0.12 -0.72 c1.16 -0.3 2.06 -0.48 2.06 -1.96 l0 -8.88 c0 -1.28 -0.82 -1.62 -1.68 -1.84 c-0.16 -0.04 -0.06 -0.7 0.1 -0.68 c1.46 0.16 3.98 0.12 5.2 0.12 c1.82 0 3.14 -0.08 4.78 -0.12 c0.48 0 0.48 0.32 0.38 0.78 l-0.48 1.9 c-0.06 0.28 -0.56 0.28 -0.64 0 c-0.3 -0.98 -0.9 -1.54 -3.4 -1.54 c-1.4 0 -1.86 0.36 -1.86 1.4 l0 3.26 c0 0.52 0.26 0.62 0.66 0.62 l0.44 0 c1.62 0 3.02 -0.16 3.84 -0.9 c0.2 -0.18 0.64 -0.14 0.46 0.26 l-1.14 2.52 c-0.16 0.36 -0.46 0.32 -0.68 0.02 c-0.46 -0.64 -1.48 -0.9 -2.64 -0.9 l-0.28 0 c-0.4 0 -0.66 0.1 -0.66 0.62 l0 3.36 c0 1.14 0.48 1.56 2.14 1.56 c3.02 0 4.22 -1.38 4.7 -2.14 c0.14 -0.22 0.68 -0.12 0.68 0.22 c0 1.02 -0.86 3.04 -2.12 3.04 c-1.12 -0.06 -2.22 -0.12 -3.9 -0.12 c-1.84 0 -4.02 -0.06 -5.84 0.12 z M230.93 19.5 c0.16 0 0.12 0.54 0 0.58 c-1.26 0.42 -3 0.36 -4.2 -1.18 l-3.08 -3.96 c-0.86 -1.12 -1.88 -1.28 -3.28 -1.3 l0 3.88 c0 1.4 0.96 1.64 2.24 1.8 c0.14 0.02 0.04 0.68 -0.12 0.68 l-6.06 0 c-0.16 0 -0.28 -0.66 -0.12 -0.68 c1.02 -0.14 1.66 -0.54 1.66 -1.8 l0 -8.92 c0 -1.32 -0.7 -1.7 -1.66 -1.96 c-0.16 -0.04 -0.06 -0.7 0.12 -0.68 c0.78 0.1 1.66 0.12 2.3 0.12 c1.48 0 2.86 -0.12 3.82 -0.12 c3.02 0 5.04 1.24 5.04 3.7 c0 2.32 -1.88 3.46 -3.56 3.56 l0 0.1 c0.8 0 1.38 0.34 2.26 1.44 l2.98 3.74 c0.62 0.78 1.22 1 1.66 1 z M220.95000000000002 12.719999999999999 c2.98 0 4.12 -0.52 4.12 -2.52 c0 -2.14 -1.36 -3.2 -3.14 -3.2 c-1.18 0 -1.56 0.48 -1.56 1.6 l0 4.12 l0.58 0 z M238.4 20.32 c-1.64 0 -4.14 -0.72 -3.9 -1.6 l0.2 -0.74 c0.56 -2.1 1.22 0.98 4.52 0.98 c1.68 0 2.5 -0.82 2.5 -1.98 c0 -0.94 -0.6 -1.34 -2.02 -2.22 l-1.94 -1.22 c-2.16 -1.36 -3.04 -2.2 -3.04 -3.7 c0 -2.46 2.4 -4.16 4.88 -4.16 c1.52 0 3.46 0.66 3.24 1.34 l-0.24 0.76 c-0.62 1.94 -1.12 -0.74 -3.86 -0.74 c-1.42 0 -2.16 0.72 -2.16 1.78 c0 0.9 0.54 1.4 1.88 2.22 l2.1 1.3 c2.12 1.32 2.98 2.22 2.98 3.66 c0 2.5 -2.46 4.32 -5.14 4.32 z M247.49 20 c-0.16 0 -0.28 -0.66 -0.12 -0.68 c1.02 -0.14 1.66 -0.54 1.66 -1.8 l0 -9.04 c0 -1.26 -0.64 -1.66 -1.66 -1.8 c-0.16 -0.02 -0.04 -0.68 0.12 -0.68 l5.48 0 c0.16 0 0.28 0.66 0.12 0.68 c-0.86 0.12 -1.66 0.4 -1.66 1.8 l0 9.04 c0 1.4 0.8 1.68 1.66 1.8 c0.16 0.02 0.04 0.68 -0.12 0.68 l-5.48 0 z M264.24 20.32 c-4.16 0 -7.22 -3.08 -7.22 -7.24 c0 -4.04 2.88 -7.4 7.26 -7.4 c4.18 0 7.22 3.06 7.22 7.22 c0 4.06 -2.86 7.42 -7.26 7.42 z M265.02000000000004 18.96 c1.76 0 4.1 -1.16 4.1 -4.94 c0 -4.04 -2.74 -6.98 -5.62 -6.98 c-1.76 0 -4.08 1.16 -4.08 4.92 c0 4.08 2.74 7 5.6 7 z M288.61 20.2 c-0.34 0 -0.52 -0.14 -0.74 -0.38 l-9.52 -9.96 l0 7.6 c0 1.36 0.8 1.58 1.94 1.86 c0.16 0.04 0.08 0.68 -0.12 0.68 l-4.74 0 c-0.16 0 -0.28 -0.62 -0.1 -0.68 c0.84 -0.28 1.64 -0.44 1.64 -1.86 l0 -7.76 c0 -1.42 -0.22 -2.1 -0.74 -2.8 c-0.18 -0.24 -0.36 -0.4 -0.36 -0.46 c0 -0.18 0.12 -0.44 0.4 -0.44 l1.48 0 c0.2 0 0.34 0.02 0.48 0.18 l9.32 9.86 l0 -7.52 c0 -1.42 -0.9 -1.58 -1.94 -1.84 c-0.16 -0.04 -0.08 -0.68 0.12 -0.68 l4.74 0 c0.16 0 0.26 0.64 0.1 0.68 c-0.88 0.26 -1.64 0.42 -1.64 1.84 l0 7.78 c0 1.32 0.04 2.78 0.24 3.52 c0.08 0.3 -0.24 0.38 -0.56 0.38 z"></path></g></svg>