<svg xmlns="http://www.w3.org/2000/svg" version="1.1" xmlns:xlink="http://www.w3.org/1999/xlink" xmlns:svgjs="http://svgjs.dev/svgjs" width="1000" height="1012" viewBox="0 0 1000 1012"><g transform="matrix(1,0,0,1,0.883954468355455,0.40971659919023296)"><svg viewBox="0 0 244 247" data-background-color="#ffffff" preserveAspectRatio="xMidYMid meet" height="1012" width="1000" xmlns="http://www.w3.org/2000/svg" xmlns:xlink="http://www.w3.org/1999/xlink"><g id="tight-bounds" transform="matrix(1,0,0,1,-0.21568489027873738,-0.09999999999999432)"><svg viewBox="0 0 244.43135999999996 247.2" height="247.2" width="244.43135999999996"><g><svg></svg></g><g><svg viewBox="0 0 244.43135999999996 247.2" height="247.2" width="244.43135999999996"><g transform="matrix(1,0,0,1,0,83.53206654251619)"><svg viewBox="0 0 244.43135999999996 80.1358669149676" height="80.1358669149676" width="244.43135999999996"><g><svg viewBox="0 0 244.43135999999996 80.1358669149676" height="80.1358669149676" width="244.43135999999996"><g><svg viewBox="0 0 244.43135999999996 80.1358669149676" height="80.1358669149676" width="244.43135999999996"><g id="textblocktransform"><svg viewBox="0 0 244.43135999999996 80.1358669149676" height="80.1358669149676" width="244.43135999999996" id="textblock"><g><svg viewBox="0 0 244.43135999999996 55.8637822169249" height="55.8637822169249" width="244.43135999999996"><g transform="matrix(1,0,0,1,0,0)"><svg width="244.43135999999996" viewBox="2 -38.04999923706055 167.7899932861328 38.349998474121094" height="55.8637822169249" data-palette-color="#4d331f"><path d="M21.85-7.95L21.85-7.95Q21.85-4.35 24.9-4.35L24.9-4.35Q25-4.35 25.05-4.35L25.05-4.35Q26.45-4.35 27.55-5.85 28.65-7.35 29.2-9.6L29.2-9.6Q30.4-14.2 30.4-17.95L30.4-17.95 29.95-17.95Q27.85-17.95 26.7-18.9L26.7-18.9Q25.5-20 25.5-21.55 25.5-23.1 26.45-24.05L26.45-24.05Q27.6-25.1 29.3-25.1L29.3-25.1Q33-25.1 34.3-21.3L34.3-21.3Q37.8-22.15 41.7-23.65L41.7-23.65 41.7-20.8Q38-19.4 34.8-18.65L34.8-18.65Q34.85-18.25 34.85-17.5L34.85-17.5Q34.65-7.15 30-2.5L30-2.5Q27.25 0.25 22.88 0.25 18.5 0.25 16.35-3.45L16.35-3.45Q13.9 0.3 8.85 0.3L8.85 0.3Q5.85 0.3 3.93-1.83 2-3.95 2-6.85L2-6.85Q2-7.35 2.05-8.05L2.05-8.05Q3.1-16.75 3.8-23.45L3.8-23.45Q5.6-24.05 6.95-24.05L6.95-24.05Q10.5-24.05 10.5-21.6L10.5-21.6Q10.5-20.65 9.75-15.05L9.75-15.05Q8.8-8 8.8-7.13 8.8-6.25 9.47-5.4 10.15-4.55 11.43-4.55 12.7-4.55 13.7-5.7 14.7-6.85 15.15-8.5L15.15-8.5 16.9-23.45Q18.5-24.05 20.3-24.05L20.3-24.05Q23.55-24.05 23.55-21.6L23.55-21.6Q23.55-20.7 22.85-15.75L22.85-15.75Q21.85-8.75 21.85-7.95ZM28.35-21.55L28.35-21.55Q28.35-20.7 29.8-20.7L29.8-20.7Q29.95-20.7 30.1-20.7L30.1-20.7Q29.75-22.05 29.05-22.05 28.35-22.05 28.35-21.55ZM46.9-11.2Q50-11.85 51.52-13.7 53.05-15.55 53.05-17.28 53.05-19 52.12-19.63 51.2-20.25 50.1-20.25L50.1-20.25Q47.75-20.25 45.97-17.63 44.2-15 44.2-11.38 44.2-7.75 45.92-5.98 47.65-4.2 50.2-4.2L50.2-4.2Q53.95-4.2 57.4-6.8 60.85-9.4 63-13.6L63-13.6Q64.1-12.55 65-11L65-11Q63.35-7.25 59.15-3.65L59.15-3.65Q57.05-1.9 54.17-0.8 51.3 0.3 48.25 0.3L48.25 0.3Q43.25 0.3 40.35-2.75L40.35-2.75Q37.25-6.05 37.25-11.2 37.25-16.35 41.12-20.2 45-24.05 50.4-24.05L50.4-24.05Q54.25-24.05 56.65-22.38 59.05-20.7 59.1-17.85L59.1-17.85Q59.1-14 56.02-11.6 52.95-9.2 47.6-8.25L47.6-8.25 46.9-11.2ZM75.75 0.3L75.75 0.3Q68 0.3 64.37-3.65 60.75-7.6 60.75-14.08 60.75-20.55 62.97-25.88 65.2-31.2 69.59-34.63 74-38.05 79.12-38.05 84.25-38.05 87.17-35.58 90.09-33.1 90.09-28.93 90.09-24.75 87.52-22 84.95-19.25 81.5-19.25 78.05-19.25 76.15-20.78 74.25-22.3 74.25-24.03 74.25-25.75 75.62-26.73 77-27.7 79.65-27.7L79.65-27.7Q79-27.05 79-25.98 79-24.9 79.65-24.1 80.3-23.3 81.65-23.3 83-23.3 84.34-24.73 85.7-26.15 85.7-28.5 85.7-30.85 84.27-32.25 82.84-33.65 80.25-33.65L80.25-33.65Q76.84-33.65 74.07-30.9 71.3-28.15 69.84-23.9 68.4-19.65 68.4-14.95L68.4-14.95Q68.4-10.9 70.15-7.8L70.15-7.8Q71.05-6.2 72.82-5.25 74.59-4.3 77-4.3L77-4.3Q81.09-4.3 84.9-6.93 88.7-9.55 91.3-13.7L91.3-13.7 93-10.65Q90.05-5.85 85.59-2.78 81.15 0.3 75.75 0.3ZM102.74-24.05L102.74-24.05Q107.34-24.05 110.42-21.1 113.49-18.15 113.49-13.9L113.49-13.9Q113.49-7.45 109.72-3.58 105.94 0.3 100.59 0.3 95.24 0.3 92.12-2.75 88.99-5.8 88.99-10.3L88.99-10.3Q88.99-16.6 92.84-20.3L92.84-20.3Q96.74-24.05 102.74-24.05ZM101.77-20Q99.39-20 97.79-17.3 96.19-14.6 96.04-10.5L96.04-10.5Q96.04-7.6 97.22-5.7 98.39-3.8 100.79-3.8 103.19-3.8 104.82-6.45 106.44-9.1 106.44-12.5 106.44-15.9 105.29-17.9L105.29-17.9Q104.14-20 101.77-20ZM128.74-24.05L128.74-24.05Q133.34-24.05 136.42-21.1 139.49-18.15 139.49-13.9L139.49-13.9Q139.49-7.45 135.72-3.58 131.94 0.3 126.59 0.3 121.24 0.3 118.12-2.75 114.99-5.8 114.99-10.3L114.99-10.3Q114.99-16.6 118.84-20.3L118.84-20.3Q122.74-24.05 128.74-24.05ZM127.77-20Q125.39-20 123.79-17.3 122.19-14.6 122.04-10.5L122.04-10.5Q122.04-7.6 123.22-5.7 124.39-3.8 126.79-3.8 129.19-3.8 130.81-6.45 132.44-9.1 132.44-12.5 132.44-15.9 131.29-17.9L131.29-17.9Q130.14-20 127.77-20ZM164.29-18L164.29-18Q164.29-12.8 158.09-10.05L158.09-10.05Q158.24-9.15 158.54-7.9L158.54-7.9Q159.44-4.2 161.54-4.1L161.54-4.1Q161.69-4.1 161.84-4.1L161.84-4.1Q165.84-4.1 167.79-11.15L167.79-11.15Q168.84-10.2 169.79-8.3L169.79-8.3Q169.09-5.6 167.81-3.75 166.54-1.9 165.04-1.1L165.04-1.1Q162.39 0.3 160.04 0.3L160.04 0.3Q154.54 0.3 152.34-5.85L152.34-5.85Q151.49-8.3 151.19-10.85L151.19-10.85Q154.04-11.55 155.69-13.18 157.34-14.8 157.34-16.65L157.34-16.65Q157.34-19.85 154.14-19.85L154.14-19.85Q152.39-19.85 151.14-18.53 149.89-17.2 149.49-15.35L149.49-15.35Q149.19-12.8 148.51-7.33 147.84-1.85 147.64 0L147.64 0 140.99 0Q144.59-30.65 145.34-37.65L145.34-37.65Q146.39-38.05 148.19-38.05L148.19-38.05Q152.09-38.05 152.09-35.75L152.09-35.75 152.09-35.45Q151.09-26.4 150.24-21.6L150.24-21.6Q152.99-24.15 157.14-24.15L157.14-24.15Q160.24-24.15 162.26-22.55 164.29-20.95 164.29-18Z" opacity="1" transform="matrix(1,0,0,1,0,0)" fill="#4d331f" class="undefined-text-0" data-fill-palette-color="primary" id="text-0"></path></svg></g></svg></g><g transform="matrix(1,0,0,1,0,69.05188046756767)"><svg viewBox="0 0 143.50565145599995 11.083986447399925" height="11.083986447399925" width="143.50565145599995"><g transform="matrix(1,0,0,1,0,0)"><svg width="143.50565145599995" viewBox="2.8499999046325684 -36.54999923706055 538.5400390625 41.599998474121094" height="11.083986447399925" data-palette-color="#e6b17e"><path d="M16.25 0.65Q9.85 0.65 6.35-4 2.85-8.65 2.85-17.35L2.85-17.35Q2.85-26 6.45-30.68 10.05-35.35 16.55-35.35L16.55-35.35Q19.2-35.35 21.55-34.68 23.9-34 25.33-32.8 26.75-31.6 26.75-30.1L26.75-30.1Q26.75-29 25.75-28.25 24.75-27.5 23.1-27.55L23.1-27.55Q22.7-30.4 21.03-31.9 19.35-33.4 16.6-33.4L16.6-33.4Q12.3-33.4 10.1-29.38 7.9-25.35 7.9-17.35L7.9-17.35Q7.9-9.4 10.08-5.35 12.25-1.3 16.5-1.3L16.5-1.3Q19.25-1.3 21.28-3.08 23.3-4.85 23.9-8.1L23.9-8.1 24.5-8.15Q25.85-8.15 26.78-7.55 27.7-6.95 27.7-5.8L27.7-5.8Q27.7-4.05 26.08-2.55 24.45-1.05 21.8-0.2 19.15 0.65 16.25 0.65L16.25 0.65ZM43.75 0.65Q38.25 0.65 35.17-2.88 32.1-6.4 32.1-12.7L32.1-12.7Q32.1-19.05 35.17-22.6 38.25-26.15 43.75-26.15L43.75-26.15Q49.25-26.15 52.3-22.6 55.35-19.05 55.35-12.7L55.35-12.7Q55.35-6.4 52.3-2.88 49.25 0.65 43.75 0.65L43.75 0.65ZM43.75-1.25Q47.05-1.25 48.77-4.2 50.5-7.15 50.5-12.7L50.5-12.7Q50.5-18.35 48.77-21.3 47.05-24.25 43.75-24.25L43.75-24.25Q40.4-24.25 38.67-21.3 36.95-18.35 36.95-12.7L36.95-12.7Q36.95-7.15 38.67-4.2 40.4-1.25 43.75-1.25L43.75-1.25ZM71.25 0.65Q65.75 0.65 62.67-2.88 59.6-6.4 59.6-12.7L59.6-12.7Q59.6-19.05 62.67-22.6 65.75-26.15 71.25-26.15L71.25-26.15Q76.75-26.15 79.8-22.6 82.84-19.05 82.84-12.7L82.84-12.7Q82.84-6.4 79.8-2.88 76.75 0.65 71.25 0.65L71.25 0.65ZM71.25-1.25Q74.55-1.25 76.27-4.2 78-7.15 78-12.7L78-12.7Q78-18.35 76.27-21.3 74.55-24.25 71.25-24.25L71.25-24.25Q67.9-24.25 66.17-21.3 64.45-18.35 64.45-12.7L64.45-12.7Q64.45-7.15 66.17-4.2 67.9-1.25 71.25-1.25L71.25-1.25ZM110.44-3.85Q111.09-3.15 111.09-2.3L111.09-2.3Q111.09-1.05 109.99-0.23 108.89 0.6 107.44 0.6L107.44 0.6Q106.09 0.6 104.99-0.23 103.89-1.05 103.24-2.55L103.24-2.55 99.19-10.85Q96.54-9.9 93.44-9.15L93.44-9.15Q93.44-4.65 93.57-3.23 93.69-1.8 94.19-0.4L94.19-0.4Q93.64 0.05 93.04 0.33 92.44 0.6 91.49 0.6L91.49 0.6Q90.04 0.6 89.49-0.1 88.94-0.8 88.94-2.1L88.94-2.1 88.94-34.05Q88.89-35.2 89.64-35.88 90.39-36.55 91.54-36.55L91.54-36.55Q93.09-36.55 94.14-35.5L94.14-35.5Q93.79-33.7 93.67-32.38 93.54-31.05 93.44-28.8L93.44-28.8Q93.44-27.55 93.39-26.85L93.39-26.85 93.34-18.9Q94.49-22.25 97.02-24.2 99.54-26.15 103.04-26.15L103.04-26.15Q106.09-26.15 107.69-24.6 109.29-23.05 109.29-20.45L109.29-20.45Q109.29-17.6 107.32-15.45 105.34-13.3 102.29-11.9L102.29-11.9Q102.89-11.7 103.37-11.18 103.84-10.65 104.39-9.75L104.39-9.75 107.04-5.05Q107.59-4 107.99-3.63 108.39-3.25 109.04-3.25L109.04-3.25Q109.89-3.25 110.44-3.85L110.44-3.85ZM93.44-11.1Q104.69-14.35 104.69-20.2L104.69-20.2Q104.69-22 103.82-22.8 102.94-23.6 101.44-23.6L101.44-23.6Q99.09-23.6 97.27-21.98 95.44-20.35 94.44-17.5 93.44-14.65 93.44-11.1L93.44-11.1ZM118.84 5.05Q117.99 4.9 117.24 4.1L117.24 4.1Q118.84 2.25 118.84 0.6L118.84 0.6Q118.84-0.7 118.17-1.28 117.49-1.85 116.34-2.25L116.34-2.25Q116.34-3.4 117.19-4.3 118.04-5.2 119.39-5.2L119.39-5.2Q120.64-5.2 121.52-4.33 122.39-3.45 122.39-1.5L122.39-1.5Q122.39 1.95 118.84 5.05L118.84 5.05ZM179.88-35.25Q182.59-35.25 182.53-33.25L182.53-33.25Q182.53-32.55 182.03-30.75L182.03-30.75 173.49-0.1Q171.78 0.6 170.38 0.6L170.38 0.6Q169.28 0.6 168.56 0.23 167.84-0.15 167.63-0.85L167.63-0.85 160.78-25.65 153.59-0.1Q151.88 0.6 150.59 0.6L150.59 0.6Q147.94 0.6 147.59-0.85L147.59-0.85 139.48-31.8Q139.09-33.35 138.23-34.3L138.23-34.3Q139.19-35.35 140.98-35.35L140.98-35.35Q142.19-35.35 142.96-34.9 143.73-34.45 143.94-33.55L143.94-33.55 151.13-3.3 158.09-28.35Q158.24-29.05 158.24-29.6L158.24-29.6Q158.24-30.35 157.94-31.05L157.94-31.05Q158.59-31.4 159.51-31.6 160.44-31.8 161.13-31.8L161.13-31.8Q161.99-31.8 162.59-31.53 163.19-31.25 163.38-30.7L163.38-30.7 170.99-3.3 177.53-31.8Q177.59-32.05 177.71-32.6 177.84-33.15 177.84-33.55L177.84-33.55Q177.84-34.3 177.49-34.8L177.49-34.8Q178.63-35.25 179.88-35.25L179.88-35.25ZM210.38-3.95Q210.93-3.15 210.93-2.25L210.93-2.25Q210.93-1.1 209.86-0.3 208.78 0.5 207.23 0.5L207.23 0.5Q204.93 0.5 203.78-1.1 202.63-2.7 202.63-6.1L202.63-6.1 202.63-6.9Q201.08-3.5 198.33-1.48 195.58 0.55 192.18 0.55L192.18 0.55Q189.28 0.55 187.58-1.03 185.88-2.6 185.88-5.25L185.88-5.25Q185.88-8.25 188.18-10.33 190.48-12.4 194.23-13.45L194.23-13.45Q198.23-14.5 202.38-14.35L202.38-14.35 202.38-15.6Q202.38-20.05 201.01-22.15 199.63-24.25 196.43-24.25L196.43-24.25Q194.38-24.25 192.98-23.3 191.58-22.35 191.58-20.25L191.58-20.25Q191.58-19.15 192.11-18.13 192.63-17.1 193.68-16.7L193.68-16.7Q192.78-15.65 191.03-15.65L191.03-15.65Q189.23-15.65 188.13-16.98 187.03-18.3 187.03-20.1L187.03-20.1Q187.03-23 189.66-24.58 192.28-26.15 196.83-26.15L196.83-26.15Q202.08-26.15 204.56-23.55 207.03-20.95 207.03-15.35L207.03-15.35 207.03-5.65Q207.03-3 208.78-3L208.78-3Q209.18-3 209.63-3.25 210.08-3.5 210.38-3.95L210.38-3.95ZM194.13-2.55Q195.98-2.55 197.93-3.98 199.88-5.4 201.18-7.73 202.48-10.05 202.53-12.65L202.53-12.65Q200.68-12.75 198.63-12.48 196.58-12.2 195.18-11.6L195.18-11.6Q193.08-10.8 191.96-9.45 190.83-8.1 190.83-6.25L190.83-6.25Q190.83-4.65 191.63-3.6 192.43-2.55 194.13-2.55L194.13-2.55ZM222.18-25.45Q223.03-25.45 224.48-25.5 225.93-25.55 226.78-25.6L226.78-25.6 226.73-24.4Q226.68-23.8 226.33-23.48 225.98-23.15 225.48-23.15L225.48-23.15 220.53-23.15 220.53-21.35 220.48-5.65Q220.48-2.95 222.88-2.95L222.88-2.95Q223.58-2.95 224.26-3.2 224.93-3.45 225.13-3.9L225.13-3.9Q225.73-3.1 225.73-2.2L225.73-2.2Q225.73-0.95 224.48-0.2 223.23 0.55 221.23 0.55L221.23 0.55Q218.78 0.55 217.38-1 215.98-2.55 215.98-5.3L215.98-5.3 215.98-23.15 215.23-23.15Q213.23-23.15 212.23-23L212.23-23 212.28-24.25Q212.33-24.85 212.68-25.15 213.03-25.45 213.58-25.45L213.58-25.45 215.98-25.45 215.98-29.65Q215.98-30.8 216.71-31.45 217.43-32.1 218.63-32.1L218.63-32.1Q220.03-32.1 221.18-31.1L221.18-31.1Q220.63-29.2 220.58-25.45L220.58-25.45 222.18-25.45ZM242.38 0.65Q236.78 0.65 233.68-2.78 230.58-6.2 230.58-12.65L230.58-12.65Q230.58-18.95 233.75-22.55 236.93-26.15 242.73-26.15L242.73-26.15Q246.83-26.15 249.1-24.38 251.38-22.6 251.38-19.8L251.38-19.8Q251.38-18 250.38-16.9 249.38-15.8 247.78-15.8L247.78-15.8Q246.08-15.8 245.23-16.85L245.23-16.85Q246.83-17.6 246.83-20.15L246.83-20.15Q246.83-22.25 245.58-23.25 244.33-24.25 242.28-24.25L242.28-24.25Q239.18-24.25 237.3-21.43 235.43-18.6 235.43-13.35L235.43-13.35Q235.43-7.65 237.65-5 239.88-2.35 243.63-2.35L243.63-2.35Q246.38-2.35 248.33-3.7 250.28-5.05 250.88-7.5L250.88-7.5Q251.63-7.15 251.63-6.1L251.63-6.1Q251.63-5.55 251.43-4.8L251.43-4.8Q250.63-2.2 248.23-0.78 245.83 0.65 242.38 0.65L242.38 0.65ZM278.33-6Q278.33-2.5 279.03-0.45L279.03-0.45Q277.88 0.6 276.48 0.6L276.48 0.6Q275.33 0.6 274.6-0.08 273.88-0.75 273.88-1.9L273.88-1.9 273.83-15.2Q273.83-19.55 272.73-21.65 271.63-23.75 268.93-23.75L268.93-23.75Q267.23-23.75 265.7-22.53 264.18-21.3 263.2-18.65 262.23-16 262.23-12L262.23-12Q262.23-5.75 262.35-3.8 262.48-1.85 263.03-0.4L263.03-0.4Q261.93 0.6 260.43 0.6L260.43 0.6Q259.28 0.6 258.53-0.13 257.78-0.85 257.78-2.1L257.78-2.1 257.78-34.05Q257.73-35.25 258.43-35.88 259.13-36.5 260.23-36.5L260.23-36.5Q261.08-36.5 261.85-36.18 262.63-35.85 263.03-35.5L263.03-35.5Q262.58-34.1 262.43-32.18 262.28-30.25 262.23-26.9L262.23-26.9 262.18-20.5Q263.28-23.2 265.38-24.68 267.48-26.15 270.33-26.15L270.33-26.15Q278.33-26.15 278.33-15.8L278.33-15.8 278.33-6ZM288.52 5.05Q287.67 4.9 286.92 4.1L286.92 4.1Q288.52 2.25 288.52 0.6L288.52 0.6Q288.52-0.7 287.85-1.28 287.17-1.85 286.02-2.25L286.02-2.25Q286.02-3.4 286.87-4.3 287.72-5.2 289.07-5.2L289.07-5.2Q290.32-5.2 291.2-4.33 292.07-3.45 292.07-1.5L292.07-1.5Q292.07 1.95 288.52 5.05L288.52 5.05ZM333.62-3.95Q334.17-3.15 334.17-2.25L334.17-2.25Q334.17-1.1 333.09-0.3 332.02 0.5 330.47 0.5L330.47 0.5Q328.17 0.5 327.02-1.1 325.87-2.7 325.87-6.1L325.87-6.1 325.87-6.9Q324.32-3.5 321.57-1.48 318.82 0.55 315.42 0.55L315.42 0.55Q312.52 0.55 310.82-1.03 309.12-2.6 309.12-5.25L309.12-5.25Q309.12-8.25 311.42-10.33 313.72-12.4 317.47-13.45L317.47-13.45Q321.47-14.5 325.62-14.35L325.62-14.35 325.62-15.6Q325.62-20.05 324.24-22.15 322.87-24.25 319.67-24.25L319.67-24.25Q317.62-24.25 316.22-23.3 314.82-22.35 314.82-20.25L314.82-20.25Q314.82-19.15 315.34-18.13 315.87-17.1 316.92-16.7L316.92-16.7Q316.02-15.65 314.27-15.65L314.27-15.65Q312.47-15.65 311.37-16.98 310.27-18.3 310.27-20.1L310.27-20.1Q310.27-23 312.89-24.58 315.52-26.15 320.07-26.15L320.07-26.15Q325.32-26.15 327.79-23.55 330.27-20.95 330.27-15.35L330.27-15.35 330.27-5.65Q330.27-3 332.02-3L332.02-3Q332.42-3 332.87-3.25 333.32-3.5 333.62-3.95L333.62-3.95ZM317.37-2.55Q319.22-2.55 321.17-3.98 323.12-5.4 324.42-7.73 325.72-10.05 325.77-12.65L325.77-12.65Q323.92-12.75 321.87-12.48 319.82-12.2 318.42-11.6L318.42-11.6Q316.32-10.8 315.19-9.45 314.07-8.1 314.07-6.25L314.07-6.25Q314.07-4.65 314.87-3.6 315.67-2.55 317.37-2.55L317.37-2.55ZM359.72-6Q359.81-2.15 360.47-0.45L360.47-0.45Q359.31 0.6 357.87 0.6L357.87 0.6Q356.72 0.6 355.97-0.08 355.22-0.75 355.22-1.9L355.22-1.9 355.22-15.2Q355.17-19.5 354.06-21.55 352.97-23.6 350.31-23.6L350.31-23.6Q348.62-23.6 347.09-22.38 345.56-21.15 344.59-18.55 343.62-15.95 343.62-12L343.62-12Q343.62-5.75 343.72-3.8 343.81-1.85 344.37-0.4L344.37-0.4Q343.97 0 343.29 0.3 342.62 0.6 341.76 0.6L341.76 0.6Q340.56 0.6 339.84-0.13 339.12-0.85 339.12-2.1L339.12-2.1 339.12-20.05Q339.06-21.45 338.74-22.03 338.42-22.6 337.72-22.6L337.72-22.6Q336.76-22.6 336.42-21.9L336.42-21.9Q335.81-22.75 335.81-23.55L335.81-23.55Q335.81-24.7 336.67-25.4 337.51-26.1 339.01-26.1L339.01-26.1Q341.01-26.1 342.09-24.73 343.17-23.35 343.17-20.7L343.17-20.7 343.17-20.1Q344.22-23 346.42-24.58 348.62-26.15 351.67-26.15L351.67-26.15Q359.72-26.15 359.72-15.8L359.72-15.8 359.72-6ZM390.21-3.8Q390.76-3 390.76-2.1L390.76-2.1Q390.76-1 389.81-0.3 388.86 0.4 387.41 0.4L387.41 0.4Q383.16 0.4 383.01-6.15L383.01-6.15Q381.86-2.9 379.64-1.13 377.41 0.65 374.21 0.65L374.21 0.65Q369.51 0.65 367.54-2.88 365.56-6.4 365.56-11.6L365.56-11.6Q365.56-18.5 368.31-22.33 371.06-26.15 376.11-26.15L376.11-26.15Q378.61-26.15 380.34-25.15 382.06-24.15 382.81-22.35L382.81-22.35 382.81-28.15Q382.81-32.8 382.06-35.5L382.06-35.5Q383.11-36.55 384.66-36.55L384.66-36.55Q385.81-36.55 386.56-35.88 387.31-35.2 387.31-34.05L387.31-34.05 387.26-5.65Q387.26-3.05 388.86-3.05L388.86-3.05Q389.81-3.05 390.21-3.8L390.21-3.8ZM375.46-2.05Q377.71-2.05 379.39-3.85 381.06-5.65 381.91-8.7 382.76-11.75 382.76-15.35L382.76-15.35Q382.76-23.6 376.96-23.6L376.96-23.6Q373.76-23.6 372.09-20.58 370.41-17.55 370.41-11.75L370.41-11.75Q370.41-7.25 371.46-4.65 372.51-2.05 375.46-2.05L375.46-2.05ZM428.06-34.7Q428.81-34.7 428.81-33.45L428.81-33.45Q428.81-32.6 428.43-31.78 428.06-30.95 427.51-30.7L427.51-30.7 426.36-31Q423.86-31.7 422.08-32.1 420.31-32.5 418.51-32.65L418.51-32.65 418.56-6Q418.56-2.3 419.26-0.45L419.26-0.45Q418.86-0.05 418.18 0.28 417.51 0.6 416.66 0.6L416.66 0.6Q415.46 0.6 414.73-0.08 414.01-0.75 414.01-1.9L414.01-1.9 413.96-32.7Q410.66-32.35 405.01-30.7L405.01-30.7Q404.46-30.95 404.08-31.78 403.71-32.6 403.71-33.45L403.71-33.45Q403.71-34 403.91-34.35 404.11-34.7 404.51-34.7L404.51-34.7 428.06-34.7ZM454.06-6Q454.06-2.5 454.75-0.45L454.75-0.45Q453.61 0.6 452.2 0.6L452.2 0.6Q451.06 0.6 450.33-0.08 449.61-0.75 449.61-1.9L449.61-1.9 449.56-15.2Q449.56-19.55 448.45-21.65 447.36-23.75 444.66-23.75L444.66-23.75Q442.95-23.75 441.43-22.53 439.91-21.3 438.93-18.65 437.95-16 437.95-12L437.95-12Q437.95-5.75 438.08-3.8 438.2-1.85 438.75-0.4L438.75-0.4Q437.66 0.6 436.16 0.6L436.16 0.6Q435 0.6 434.25-0.13 433.5-0.85 433.5-2.1L433.5-2.1 433.5-34.05Q433.45-35.25 434.16-35.88 434.86-36.5 435.95-36.5L435.95-36.5Q436.81-36.5 437.58-36.18 438.36-35.85 438.75-35.5L438.75-35.5Q438.31-34.1 438.16-32.18 438-30.25 437.95-26.9L437.95-26.9 437.91-20.5Q439-23.2 441.11-24.68 443.2-26.15 446.06-26.15L446.06-26.15Q454.06-26.15 454.06-15.8L454.06-15.8 454.06-6ZM472.9-26.15Q475.5-26.15 477.13-24.73 478.75-23.3 478.75-20.85L478.75-20.85Q478.75-19.1 477.75-18 476.75-16.9 475.35-16.9L475.35-16.9Q474.1-16.9 473.55-17.55L473.55-17.55Q474.1-18.4 474.3-19.1 474.5-19.8 474.5-20.75L474.5-20.75Q474.5-23.75 471.75-23.75L471.75-23.75Q469.6-23.75 468.18-20.85 466.75-17.95 466.75-12L466.75-12Q466.75-5.85 466.85-3.93 466.95-2 467.5-0.55L467.5-0.55Q467.1-0.15 466.43 0.15 465.75 0.45 464.85 0.5L464.85 0.5Q463.75 0.5 463-0.23 462.25-0.95 462.25-2.2L462.25-2.2 462.25-20.05Q462.25-21.4 461.93-22 461.6-22.6 460.85-22.6L460.85-22.6Q459.9-22.6 459.55-21.9L459.55-21.9Q458.95-22.75 458.95-23.55L458.95-23.55Q458.95-24.7 459.8-25.4 460.65-26.1 462.15-26.1L462.15-26.1Q464.15-26.1 465.23-24.68 466.3-23.25 466.25-20.5L466.25-20.5Q467.1-23.25 468.8-24.7 470.5-26.15 472.9-26.15L472.9-26.15ZM486.55-29.75Q485.3-29.75 484.45-30.6 483.6-31.45 483.6-32.65L483.6-32.65Q483.6-33.9 484.45-34.75 485.3-35.6 486.55-35.6L486.55-35.6Q487.75-35.6 488.6-34.75 489.45-33.9 489.45-32.65L489.45-32.65Q489.45-31.45 488.6-30.6 487.75-29.75 486.55-29.75L486.55-29.75ZM489-6Q489-2.3 489.7-0.45L489.7-0.45Q488.65 0.6 487.1 0.6L487.1 0.6Q486 0.6 485.28-0.08 484.55-0.75 484.55-1.9L484.55-1.9 484.5-19.55Q484.5-23.3 483.8-25.15L483.8-25.15Q485.1-26.15 486.4-26.15L486.4-26.15Q487.55-26.15 488.25-25.5 488.95-24.85 488.95-23.7L488.95-23.7 489-6ZM514.5-25.85Q515.8-25.85 516.42-25.35 517.05-24.85 517.05-23.8L517.05-23.8Q517.05-22.55 516.5-21.3L516.5-21.3 508.35-0.15Q506.8 0.6 505.3 0.6L505.3 0.6Q503.25 0.6 502.7-1.05L502.7-1.05 495.05-22.3Q495-22.5 494.65-23.38 494.3-24.25 493.8-24.75L493.8-24.75Q494.8-25.85 496.45-25.85L496.45-25.85Q497.5-25.85 498.22-25.38 498.95-24.9 499.15-24L499.15-24 505.95-2.3 512.2-22.4Q512.45-23.8 512.45-24.15L512.45-24.15Q512.45-25.05 512.2-25.4L512.2-25.4Q513.3-25.85 514.5-25.85L514.5-25.85ZM540.44-6.6Q541.19-6.3 541.19-5.45L541.19-5.45Q541.19-4.9 540.84-4.05L540.84-4.05Q539.94-1.75 537.54-0.55 535.14 0.65 531.84 0.65L531.84 0.65Q526.29 0.65 523.12-2.8 519.94-6.25 519.94-12.65L519.94-12.65Q519.94-18.95 523.09-22.55 526.24-26.15 532.04-26.15L532.04-26.15Q536.24-26.15 538.82-24.25 541.39-22.35 541.39-18.85L541.39-18.85Q541.39-15.15 538.39-13.2 535.39-11.25 530.14-11.25L530.14-11.25Q527.49-11.25 524.84-11.55L524.84-11.55Q525.44-2.35 532.99-2.35L532.99-2.35Q535.69-2.35 537.67-3.48 539.64-4.6 540.44-6.6L540.44-6.6ZM531.84-24.25Q528.59-24.25 526.72-21.45 524.84-18.65 524.79-13.4L524.79-13.4Q525.84-13.3 528.14-13.2L528.14-13.2Q531.94-13.2 534.24-14.58 536.54-15.95 536.54-19.5L536.54-19.5Q536.54-22.1 535.19-23.18 533.84-24.25 531.84-24.25L531.84-24.25Z" opacity="1" transform="matrix(1,0,0,1,0,0)" fill="#e6b17e" class="undefined-text-1" data-fill-palette-color="secondary" id="text-1"></path></svg></g></svg></g></svg></g></svg></g><g></g></svg></g></svg></g><path d="M0 77.532L0 1 244.431 1 244.431 77.532 239.394 77.532 239.394 6.038 5.038 6.038 5.038 77.532 0 77.532M0 169.668L0 246.2 244.431 246.2 244.431 169.668 239.394 169.668 239.394 241.162 5.038 241.162 5.038 169.668 0 169.668" fill="#4d331f" stroke="transparent" data-fill-palette-color="primary"></path></svg></g><defs></defs></svg><rect width="244.43135999999996" height="247.2" fill="none" stroke="none" visibility="hidden"></rect></g></svg></g></svg>